<svg width="91" height="91" viewBox="0 0 91 91" fill="none" xmlns="http://www.w3.org/2000/svg">
<path d="M40.3741 63.3286L22.998 45.9484L28.7887 40.1577L40.3741 51.739L63.5368 28.5723L69.3316 34.367L40.3741 63.3204V63.3286Z" fill="#2A2A86"/>
<path fill-rule="evenodd" clip-rule="evenodd" d="M0.808594 45.7156C0.808594 20.837 20.9776 0.667969 45.8562 0.667969C70.7348 0.667969 90.9038 20.837 90.9038 45.7156C90.9038 70.5942 70.7348 90.7632 45.8562 90.7632C20.9776 90.7632 0.808594 70.5942 0.808594 45.7156ZM45.8562 82.5727C41.0161 82.5727 36.2233 81.6194 31.7516 79.7672C27.2799 77.9149 23.2168 75.2 19.7943 71.7775C16.3718 68.355 13.6569 64.2919 11.8047 59.8202C9.95241 55.3485 8.99907 50.5557 8.99907 45.7156C8.99907 40.8754 9.95241 36.0827 11.8047 31.611C13.6569 27.1393 16.3718 23.0762 19.7943 19.6537C23.2168 16.2311 27.2799 13.5163 31.7516 11.664C36.2233 9.81178 41.0161 8.85845 45.8562 8.85845C55.6313 8.85845 65.0061 12.7416 71.9181 19.6537C78.8302 26.5657 82.7134 35.9405 82.7134 45.7156C82.7134 55.4907 78.8302 64.8655 71.9181 71.7775C65.0061 78.6896 55.6313 82.5727 45.8562 82.5727Z" fill="#2A2A86"/>
</svg>
