<svg width="1440" height="717" viewBox="0 0 1440 717" fill="none" xmlns="http://www.w3.org/2000/svg">
<path d="M220.098 353.078V99.8407C220.098 59.3205 164.891 39.0332 132.779 67.6918L-596.571 716.097H-27.5678L160.996 549.299C165.857 545 172.04 542.076 178.766 540.894C185.493 539.713 192.462 540.327 198.797 542.659C205.131 544.991 210.548 548.937 214.366 554C218.184 559.063 220.232 565.017 220.252 571.113V606.261C220.252 646.782 275.459 667.069 307.571 638.41L608.451 370.912C614.83 365.244 619.89 358.515 623.342 351.109C626.794 343.702 628.571 335.764 628.571 327.746V99.8407C628.571 59.3205 573.364 39.0332 541.252 67.6918L220.098 353.078Z" fill="url(#paint0_linear_831_1236)" fill-opacity="0.51"/>
<path d="M1265.81 299.1V45.8622C1265.81 5.34202 1210.61 -14.9454 1178.49 13.7133L449.143 662.118H1018.15L1206.71 495.32C1211.57 491.021 1217.75 488.097 1224.48 486.916C1231.21 485.734 1238.18 486.348 1244.51 488.68C1250.85 491.012 1256.26 494.958 1260.08 500.021C1263.9 505.085 1265.95 511.039 1265.97 517.135V552.283C1265.97 592.803 1321.17 613.091 1353.29 584.432L1654.17 316.933C1660.54 311.266 1665.6 304.537 1669.06 297.13C1672.51 289.724 1674.29 281.785 1674.29 273.768V45.8622C1674.29 5.34202 1619.08 -14.9454 1586.97 13.7133L1265.81 299.1Z" fill="url(#paint1_linear_831_1236)" fill-opacity="0.51"/>
<defs>
<linearGradient id="paint0_linear_831_1236" x1="-509.061" y1="134.122" x2="703.369" y2="141.409" gradientUnits="userSpaceOnUse">
<stop offset="0.256945" stop-color="#F173AB"/>
<stop offset="0.832156" stop-color="#2A2A86" stop-opacity="0"/>
</linearGradient>
<linearGradient id="paint1_linear_831_1236" x1="536.653" y1="80.1437" x2="1749.08" y2="87.4301" gradientUnits="userSpaceOnUse">
<stop offset="0.345486" stop-color="#2A2A86" stop-opacity="0"/>
<stop offset="0.657986" stop-color="#8D4E98" stop-opacity="0.496528"/>
<stop offset="1" stop-color="#F173AB"/>
</linearGradient>
</defs>
</svg>
