<svg width="158" height="26" viewBox="0 0 158 26" fill="none" xmlns="http://www.w3.org/2000/svg">
<path d="M27.9676 11.5221V1.85065C27.9677 1.50697 27.866 1.171 27.6753 0.885267C27.4846 0.599537 27.2135 0.376906 26.8964 0.245567C26.5793 0.114228 26.2304 0.0800888 25.8939 0.147473C25.5574 0.214858 25.2484 0.380735 25.0061 0.624098L0.277832 25.3891H19.5711L25.9583 19.0044C26.1236 18.8407 26.3335 18.7296 26.5617 18.685C26.7899 18.6404 27.0261 18.6643 27.2407 18.7536C27.4554 18.843 27.6389 18.9939 27.7682 19.1874C27.8975 19.3809 27.9669 19.6083 27.9676 19.8411V21.1846C27.9666 21.5283 28.0677 21.8645 28.2581 22.1505C28.4484 22.4366 28.7193 22.6595 29.0364 22.7909C29.3535 22.9224 29.7024 22.9565 30.0389 22.8889C30.3754 22.8212 30.6842 22.655 30.9261 22.4111L41.1282 12.1939C41.3449 11.9775 41.5167 11.7204 41.6338 11.4374C41.751 11.1543 41.8112 10.8509 41.811 10.5445V1.85065C41.8111 1.50697 41.7093 1.171 41.5186 0.885267C41.328 0.599537 41.0569 0.376906 40.7398 0.245567C40.4226 0.114228 40.0737 0.0800888 39.7372 0.147473C39.4007 0.214858 39.0918 0.380735 38.8495 0.624098L27.9676 11.5221Z" fill="url(#paint0_linear_777_1482)"/>
<path d="M122.575 12.7485H124.695V25.3889H121.485V13.8401C121.485 13.6968 121.513 13.5548 121.568 13.4224C121.622 13.29 121.703 13.1696 121.804 13.0683C121.905 12.9669 122.025 12.8865 122.157 12.8316C122.29 12.7768 122.431 12.7485 122.575 12.7485Z" fill="white"/>
<path d="M126.964 12.7485H129.177C129.531 12.748 129.879 12.8334 130.192 12.9974C130.505 13.1614 130.773 13.3992 130.974 13.6902L135.876 20.7856H135.915V13.8401C135.914 13.6969 135.942 13.5551 135.997 13.4226C136.051 13.2902 136.131 13.1698 136.232 13.0684C136.333 12.967 136.453 12.8866 136.585 12.8317C136.717 12.7768 136.859 12.7485 137.002 12.7485H139.122V25.3889H136.912C136.559 25.3898 136.211 25.3045 135.898 25.1404C135.584 24.9763 135.316 24.7385 135.115 24.4473L130.21 17.3369H130.174V24.2973C130.174 24.5868 130.06 24.8645 129.855 25.0692C129.651 25.2739 129.374 25.3889 129.084 25.3889H126.964V12.7485Z" fill="white"/>
<path d="M155.612 22.0661H155.702C155.92 22.0661 156.136 22.1091 156.337 22.1925C156.538 22.276 156.721 22.3984 156.875 22.5527C157.029 22.707 157.152 22.8901 157.235 23.0917C157.318 23.2933 157.361 23.5093 157.361 23.7275C157.361 23.9467 157.318 24.1637 157.234 24.366C157.15 24.5684 157.026 24.7521 156.871 24.9065C156.716 25.061 156.531 25.1831 156.329 25.2659C156.126 25.3486 155.909 25.3905 155.69 25.3889H155.6C155.16 25.3889 154.739 25.2138 154.427 24.9023C154.116 24.5907 153.942 24.1681 153.942 23.7275C153.942 23.5083 153.985 23.2913 154.069 23.0889C154.153 22.8866 154.276 22.7029 154.432 22.5484C154.587 22.394 154.771 22.2719 154.974 22.1891C155.177 22.1063 155.394 22.0645 155.612 22.0661Z" fill="white"/>
<path d="M70.3961 12.7485H68.1263C67.9159 12.7492 67.7102 12.8107 67.5338 12.9256C67.3575 13.0405 67.218 13.204 67.1321 13.3963L61.778 25.3919H64.3862C64.6033 25.3901 64.815 25.3235 64.9942 25.2006C65.1734 25.0778 65.312 24.9042 65.3923 24.7022L65.8894 23.5026H70.0487L69.1953 21.4484C69.1129 21.2492 68.9732 21.079 68.7941 20.9594C68.615 20.8398 68.4044 20.7762 68.1891 20.7766H67.0063L68.8988 16.1703H68.9348L72.4443 24.7022C72.5266 24.9017 72.6661 25.0722 72.8452 25.1923C73.0243 25.3124 73.2349 25.3767 73.4504 25.3769H76.0376L70.3961 12.7485Z" fill="white"/>
<path d="M146.905 12.7485H142.476C142.333 12.7485 142.191 12.7768 142.059 12.8317C141.927 12.8866 141.807 12.967 141.706 13.0684C141.605 13.1698 141.525 13.2902 141.471 13.4226C141.416 13.555 141.388 13.6969 141.389 13.8401V15.5495H146.653C148.905 15.5495 150.076 16.6681 150.076 19.0702C150.076 21.5233 148.941 22.5909 146.653 22.5909H144.611V19.3041C144.611 19.1603 144.582 19.0178 144.527 18.885C144.472 18.7522 144.391 18.6316 144.289 18.5301C144.188 18.4287 144.067 18.3484 143.934 18.2939C143.801 18.2394 143.658 18.2118 143.515 18.2125L141.404 18.2275V25.3889H146.884C148.848 25.3889 150.417 24.8461 151.57 23.7815C152.723 22.7169 153.295 21.1455 153.295 19.0702C153.295 14.9887 150.743 12.7485 146.905 12.7485Z" fill="white"/>
<path d="M56.969 13.5342L52.9234 18.3115L48.9049 13.5342C48.702 13.292 48.4486 13.0972 48.1625 12.9636C47.8765 12.8299 47.5646 12.7606 47.2489 12.7605H45.066V25.3889H47.1621C47.4512 25.3889 47.7284 25.2739 47.9328 25.0692C48.1372 24.8645 48.2521 24.5868 48.2521 24.2973V17.7237L51.3963 20.8366C51.8039 21.2408 52.3543 21.4675 52.9279 21.4675C53.5015 21.4675 54.052 21.2408 54.4596 20.8366L57.6068 17.7087V24.3063C57.6068 24.5958 57.7216 24.8735 57.926 25.0782C58.1304 25.2829 58.4077 25.3979 58.6968 25.3979H60.7929V12.7485L58.6009 12.7665C58.2899 12.7699 57.9832 12.8402 57.7016 12.9727C57.42 13.1051 57.1702 13.2967 56.969 13.5342Z" fill="white"/>
<path d="M85.575 20.9476V20.9296C87.3956 20.3688 88.4946 18.9593 88.4946 16.956C88.4946 14.338 86.6021 12.7576 83.7903 12.7576H79.1399C78.575 12.7584 78.0335 12.9837 77.6343 13.384C77.2351 13.7844 77.0109 14.327 77.0109 14.8928V25.389H79.1309C79.2748 25.3901 79.4175 25.3628 79.5508 25.3085C79.6841 25.2541 79.8053 25.1739 79.9075 25.0724C80.0097 24.971 80.0908 24.8502 80.1461 24.7172C80.2014 24.5842 80.2299 24.4415 80.2299 24.2974V15.4956H83.5238C84.6946 15.4956 85.2905 15.9814 85.2905 16.956C85.2905 17.9307 84.6228 18.4555 83.5238 18.4555H82.4937C82.3047 18.4529 82.1184 18.5016 81.9548 18.5963C81.7911 18.6911 81.6561 18.8285 81.564 18.9938C81.4719 19.1592 81.4262 19.3464 81.4317 19.5357C81.4373 19.725 81.4938 19.9092 81.5954 20.0689L84.3114 24.3723C84.5076 24.6838 84.7794 24.9403 85.1015 25.1181C85.4235 25.2959 85.7852 25.3891 86.1529 25.389H88.5216L85.575 20.9476Z" fill="white"/>
<path d="M115.364 13.5342L111.318 18.3115L107.303 13.5342C107.099 13.2925 106.846 13.098 106.56 12.9644C106.274 12.8308 105.962 12.7612 105.647 12.7605H103.461V25.3889H105.557C105.846 25.3889 106.123 25.2739 106.328 25.0692C106.532 24.8645 106.647 24.5868 106.647 24.2973V17.7237L109.791 20.8366C110.199 21.2409 110.75 21.4678 111.324 21.4678C111.898 21.4678 112.449 21.2409 112.857 20.8366L116.005 17.7087V24.3063C116.005 24.5958 116.12 24.8735 116.324 25.0782C116.528 25.2829 116.806 25.3979 117.095 25.3979H119.191V12.7485L116.999 12.7665C116.687 12.7699 116.38 12.8402 116.098 12.9726C115.816 13.1051 115.566 13.2966 115.364 13.5342Z" fill="white"/>
<path d="M93.2917 12.7485H90.0817V25.3859H93.2917V12.7485Z" fill="white"/>
<path d="M97.2983 18.2215L102.437 12.7485H98.6548C98.5039 12.7487 98.3546 12.7802 98.2164 12.8411C98.0783 12.902 97.9543 12.991 97.8523 13.1024L94.0733 17.2259C93.9084 17.4053 93.8085 17.635 93.7895 17.878C93.7705 18.1211 93.8335 18.3635 93.9685 18.5664L98.1787 24.9031C98.2772 25.0516 98.4107 25.1735 98.5674 25.2582C98.724 25.3429 98.899 25.3878 99.077 25.3889H102.497L97.2983 18.2215Z" fill="white"/>
<defs>
<linearGradient id="paint0_linear_777_1482" x1="-0.79119" y1="33.9809" x2="37.1822" y2="4.41539" gradientUnits="userSpaceOnUse">
<stop stop-color="#F69389"/>
<stop offset="0.28" stop-color="#FF6EAB"/>
<stop offset="0.59" stop-color="#C754E3"/>
<stop offset="1" stop-color="#2929FE"/>
</linearGradient>
</defs>
</svg>
